# xmcd
#
# Track frame offsets:
#	151
#	44595
#	68176
#	95475
#	123787
#	152866
#	190358
#	214570
#
# Disc length: 3198 seconds
#
# Revision: 2
# Processed by: cddbd v1.5.2PL0 Copyright (c) Steve Scherf et al.
# Submitted via: EZCDDA 4.3.2
#
DISCID=6e0c7c08
DTITLE=聖經-新約 - Disc 68
DYEAR=2002
DGENRE=vocal
TTITLE0=馬可福音-第1章
TTITLE1=馬可福音-第2章
TTITLE2=馬可福音-第3章
TTITLE3=馬可福音-第4章
TTITLE4=馬可福音-第5章
TTITLE5=馬可福音-第6章
TTITLE6=馬可福音-第7章
TTITLE7=馬可福音-第8章
EXTD=
EXTT0=
EXTT1=
EXTT2=
EXTT3=
EXTT4=
EXTT5=
EXTT6=
EXTT7=
PLAYORDER=
